# xmcd CD Database Entry
#
# Track frame offsets:
# 150
# 25921
# 58354
# 72529
# 104996
# 137450
# 156404
# 184934
# 208034
# 235566
# 264382
# 278565
# 297271
# 316672
# 324373
#
# Disc length: 4573 seconds
#
# Revision: 2
# Processed by: cddbd v1.5.1PL0 Copyright (c) Steve Scherf et al.
# Submitted via: tcd 2.0b
#
DISCID=e311db0f
DTITLE=Marshall Jefferson - Move Your Body - The Evolution of Chicag
DTITLE=o House [CD 2)
DYEAR=1900
DGENRE=
TTITLE0=Pockets - Come go with me
TTITLE1=Logg - You've got that something
TTITLE2=Isaac Hayes - I can't turn around
TTITLE3=Inner Life - I'm caught up (in a one night love affair)
TTITLE4=First Choice - Let no man put asunder
TTITLE5=Cheryl Lynn - You saved my day
TTITLE6=Frankie Knuckles feat. Jamie Principle - Your love
TTITLE7=Mr Fingers - Can you feel it
TTITLE8=Nightwriters - Let the music use you
TTITLE9=Finger Inc - Mysteries of Love
TTITLE10=Jungle Wonz - Time marches on
TTITLE11=Serious Intention - You don't know
TTITLE12=Peech Boys - Don't make me wait
TTITLE13=Phuture - Acid tracks
TTITLE14=Sleezy D - I've lost control
EXTD=
EXTT0=\t
EXTT1=
EXTT2=
EXTT3=
EXTT4=
EXTT5=
EXTT6=
EXTT7=
EXTT8=
EXTT9=
EXTT10=
EXTT11=
EXTT12=
EXTT13=
EXTT14=
PLAYORDER=
